<svg xmlns="http://www.w3.org/2000/svg" xmlns:xlink="http://www.w3.org/1999/xlink" version="1.1" style="" xml:space="preserve" width="207.19780227841716" height="43.19779861043881"><rect id="backgroundrect" width="100%" height="100%" x="0" y="0" fill="none" stroke="none" class="" style=""/>
<style type="text/css">
	.st0{fill-rule:evenodd;clip-rule:evenodd;fill:#FFFFFF;}
</style>

<g class="currentLayer" style=""><title>Layer 1</title><path class="st0 selected" d="M20.38809329776506,29.664242566277778 l1.4996648311614988,7.3972071058765 h-1.9281404972076417 v0.9414627225661008 h7.2840863227844235 v-0.9414627225661008 H25.851158039853374 l-5.570183658599854,-28.243881676983 h-1.6067837476730347 l-4.606113409996032,23.4020733895002 c-0.10711891651153566,0.5379786986092003 -0.21423783302307134,1.0759573972184 -0.3213567495346073,1.6139360958276 c-0.10711891651153566,0.5379786986092003 -0.3213567495346073,1.0759573972184 -0.4284756660461427,1.6139360958276 c-0.10711891651153566,0.40348402395690036 -0.3213567495346073,0.8069680479138006 -0.6427134990692144,1.0759573972184 c-0.3213567495346073,0.2689893493046002 -0.6427134990692144,0.5379786986092003 -1.2854269981384276,0.5379786986092003 v0.9414627225661008 h5.463064742088317 v-0.9414627225661008 c-0.4284756660461427,0 -0.7498324155807501,-0.1344946746523001 -0.964070248603821,-0.1344946746523001 c-0.21423783302307134,0 -0.3213567495346073,-0.1344946746523001 -0.4284756660461427,-0.1344946746523001 c-0.21423783302307134,-0.1344946746523001 -0.4284756660461427,-0.40348402395690036 -0.6427134990692144,-0.6724733732615003 c-0.21423783302307134,-0.40348402395690036 -0.21423783302307134,-0.8069680479138006 -0.21423783302307134,-1.3449467465229998 c0,-0.2689893493046002 0.10711891651153566,-0.8069680479138006 0.10711891651153566,-1.4794414211753002 c0.10711891651153566,-0.6724733732615003 0.21423783302307134,-1.2104520718707004 0.21423783302307134,-1.6139360958276 l0.4284756660461427,-1.8829254451322002 L20.38809329776506,29.664242566277778 L20.38809329776506,29.664242566277778 zM127.61412872581224,9.221052019128194 v0.9414627225661008 h2.035259413719177 v26.89893493046 H127.61412872581224 v0.9414627225661008 h8.141037654876708 c0.7498324155807501,0 1.3925459146499635,-0.1344946746523001 2.142378330230713,-0.5379786986092003 c0.6427134990692144,-0.2689893493046002 1.3925459146499635,-0.9414627225661008 2.142378330230713,-1.7484307704799 c1.2854269981384276,-1.6139360958276 2.142378330230713,-3.4968615409598 2.677972912788391,-5.7832710100489 c0.4284756660461427,-2.1519147944368 0.6427134990692144,-4.4383242635259 0.6427134990692144,-6.724733732615 c0,-1.4794414211753002 -0.10711891651153566,-2.9588828423506004 -0.3213567495346073,-4.7073136128305 s-0.7498324155807501,-3.3623668663075 -1.4996648311614988,-5.1107976367874 c-0.5355945825576782,-1.2104520718707004 -1.2854269981384276,-2.1519147944368 -2.142378330230713,-3.0933775170029 c-0.8569513320922854,-0.8069680479138006 -1.9281404972076417,-1.3449467465229998 -3.2135674953460693,-1.3449467465229998 h-8.569513320922852 L127.61412872581224,9.221052019128194 L127.61412872581224,9.221052019128194 zM133.29143130092365,10.162514741694281 L133.29143130092365,10.162514741694281 h1.4996648311614988 c0.5355945825576782,0 1.1783080816268923,0.1344946746523001 1.7139026641845707,0.40348402395690036 c0.6427134990692144,0.2689893493046002 1.1783080816268923,0.9414627225661008 1.6067837476730347,2.0174201197845 c0.4284756660461427,0.9414627225661008 0.6427134990692144,1.8829254451322002 0.7498324155807501,3.0933775170029 c0.10711891651153566,1.0759573972184 0.10711891651153566,2.4209041437414003 0.10711891651153566,3.7658508902644003 v7.1282177565719005 c0,1.6139360958276 0,3.2278721916552007 -0.21423783302307134,4.8418082874828015 c-0.10711891651153566,1.6139360958276 -0.5355945825576782,2.9588828423506004 -1.0711891651153564,4.034840239568999 c-0.5355945825576782,0.8069680479138006 -0.964070248603821,1.3449467465229998 -1.4996648311614988,1.4794414211753002 s-1.0711891651153564,0.2689893493046002 -1.7139026641845707,0.2689893493046002 h-1.2854269981384276 L133.29143130092365,10.162514741694281 L133.29143130092365,10.162514741694281 zM144.32467970161179,9.221052019128194 v0.9414627225661008 h2.035259413719177 v18.4257704273651 c0,0.9414627225661008 0,2.0174201197845 0,3.0933775170029 c0.10711891651153566,1.0759573972184 0.3213567495346073,2.1519147944368 0.7498324155807501,3.2278721916552007 c0.21423783302307134,0.40348402395690036 0.4284756660461427,0.9414627225661008 0.8569513320922854,1.4794414211753002 c0.4284756660461427,0.5379786986092003 0.964070248603821,1.0759573972184 1.7139026641845707,1.4794414211753002 c0.7498324155807501,0.40348402395690036 1.6067837476730347,0.6724733732615003 2.677972912788391,0.6724733732615003 c1.3925459146499635,0 2.4637350797653195,-0.40348402395690036 3.320686411857605,-1.2104520718707004 s1.3925459146499635,-1.7484307704799 1.821021580696106,-2.8243881676983 c0.3213567495346073,-0.9414627225661008 0.5355945825576782,-1.7484307704799 0.6427134990692144,-2.5553988183937 s0.10711891651153566,-1.7484307704799 0.10711891651153566,-2.5553988183937 v-13.44946746523 c0,-2.2864094690891 0.21423783302307134,-3.9003455649167003 0.5355945825576782,-4.5728189381782 s0.7498324155807501,-1.0759573972184 1.2854269981384276,-1.0759573972184 v-0.9414627225661008 h-4.713232326507569 v0.9414627225661008 c0.964070248603821,0.2689893493046002 1.6067837476730347,0.9414627225661008 1.821021580696106,2.1519147944368 c0.21423783302307134,1.0759573972184 0.3213567495346073,2.4209041437414003 0.3213567495346073,3.7658508902644003 v12.7769940919685 c0,1.0759573972184 0,2.1519147944368 -0.10711891651153566,3.0933775170029 c-0.10711891651153566,0.9414627225661008 -0.4284756660461427,2.0174201197845 -0.8569513320922854,2.9588828423506004 c-0.5355945825576782,0.9414627225661008 -1.0711891651153564,1.4794414211753002 -1.6067837476730347,1.7484307704799 c-0.5355945825576782,0.2689893493046002 -1.0711891651153564,0.40348402395690036 -1.4996648311614988,0.40348402395690036 c-0.5355945825576782,0 -1.0711891651153564,-0.1344946746523001 -1.4996648311614988,-0.40348402395690036 c-0.4284756660461427,-0.2689893493046002 -0.8569513320922854,-0.6724733732615003 -1.1783080816268923,-1.2104520718707004 s-0.5355945825576782,-1.2104520718707004 -0.6427134990692144,-2.1519147944368 c-0.10711891651153566,-0.8069680479138006 -0.10711891651153566,-1.7484307704799 -0.10711891651153566,-2.689893493046 v-20.4431905471496 h2.035259413719177 v-0.9414627225661008 L144.32467970161179,9.221052019128194 L144.32467970161179,9.221052019128194 zM174.74645199088792,18.501184570136957 v-9.2801325510087 h-0.8569513320922854 c-0.10711891651153566,0.40348402395690036 -0.21423783302307134,0.5379786986092003 -0.4284756660461427,0.6724733732615003 s-0.3213567495346073,0.1344946746523001 -0.5355945825576782,0.1344946746523001 c-0.10711891651153566,0 -0.3213567495346073,0 -0.5355945825576782,-0.1344946746523001 s-0.4284756660461427,-0.2689893493046002 -0.7498324155807501,-0.40348402395690036 c-0.3213567495346073,-0.1344946746523001 -0.7498324155807501,-0.2689893493046002 -1.1783080816268923,-0.40348402395690036 c-0.4284756660461427,-0.1344946746523001 -0.8569513320922854,-0.1344946746523001 -1.2854269981384276,-0.1344946746523001 c-0.7498324155807501,0 -1.6067837476730347,0.2689893493046002 -2.3566161632537845,0.8069680479138006 c-0.8569513320922854,0.5379786986092003 -1.6067837476730347,1.3449467465229998 -2.3566161632537845,2.689893493046 c-0.7498324155807501,1.2104520718707004 -1.3925459146499635,2.9588828423506004 -1.9281404972076417,4.9763029621351 s-0.8569513320922854,4.1693349142213005 -0.8569513320922854,6.590239057962701 c0,2.1519147944368 0.21423783302307134,4.034840239568999 0.5355945825576782,5.5142816607443 s0.7498324155807501,2.8243881676983 1.2854269981384276,3.9003455649167003 c0.7498324155807501,1.6139360958276 1.4996648311614988,2.9588828423506004 2.4637350797653195,3.9003455649167003 c0.964070248603821,0.9414627225661008 2.142378330230713,1.4794414211753002 3.534924244880676,1.4794414211753002 c0.5355945825576782,0 0.8569513320922854,-0.1344946746523001 1.1783080816268923,-0.2689893493046002 s0.5355945825576782,-0.2689893493046002 0.7498324155807501,-0.40348402395690036 c0.3213567495346073,-0.1344946746523001 0.5355945825576782,-0.40348402395690036 0.7498324155807501,-0.5379786986092003 s0.5355945825576782,-0.2689893493046002 0.7498324155807501,-0.2689893493046002 s0.4284756660461427,0 0.5355945825576782,0.2689893493046002 c0.21423783302307134,0.1344946746523001 0.3213567495346073,0.40348402395690036 0.4284756660461427,0.9414627225661008 h0.8569513320922854 l0.21423783302307134,-10.2215952735748 h-0.8569513320922854 c-0.10711891651153566,1.2104520718707004 -0.21423783302307134,2.2864094690891 -0.4284756660461427,3.2278721916552007 c-0.21423783302307134,0.9414627225661008 -0.4284756660461427,1.7484307704799 -0.7498324155807501,2.5553988183937 c-0.6427134990692144,1.4794414211753002 -1.2854269981384276,2.5553988183937 -1.9281404972076417,3.0933775170029 s-1.2854269981384276,0.8069680479138006 -1.821021580696106,0.8069680479138006 c-0.4284756660461427,0 -0.8569513320922854,-0.2689893493046002 -1.2854269981384276,-0.6724733732615003 s-0.8569513320922854,-1.0759573972184 -1.1783080816268923,-1.8829254451322002 c-0.4284756660461427,-0.9414627225661008 -0.6427134990692144,-2.1519147944368 -0.8569513320922854,-3.4968615409598 s-0.21423783302307134,-3.0933775170029 -0.21423783302307134,-5.1107976367874 v-6.0522603593535 c0,-1.4794414211753002 0,-2.8243881676983 0.10711891651153566,-4.1693349142213005 s0.3213567495346073,-2.4209041437414003 0.6427134990692144,-3.3623668663075 c0.3213567495346073,-1.0759573972184 0.8569513320922854,-1.7484307704799 1.2854269981384276,-2.2864094690891 c0.5355945825576782,-0.40348402395690036 1.0711891651153564,-0.6724733732615003 1.6067837476730347,-0.6724733732615003 c0.6427134990692144,0 1.1783080816268923,0.2689893493046002 1.7139026641845707,0.6724733732615003 c0.4284756660461427,0.40348402395690036 0.8569513320922854,0.9414627225661008 1.1783080816268923,1.4794414211753002 s0.5355945825576782,1.0759573972184 0.6427134990692144,1.4794414211753002 c0.21423783302307134,0.5379786986092003 0.4284756660461427,1.2104520718707004 0.6427134990692144,2.0174201197845 c0.21423783302307134,0.8069680479138006 0.4284756660461427,1.8829254451322002 0.5355945825576782,2.9588828423506004 L174.74645199088792,18.501184570136957 L174.74645199088792,18.501184570136957 zM176.7817114046071,9.221052019128194 v0.9414627225661008 h2.035259413719177 v26.89893493046 h-2.035259413719177 v0.9414627225661008 h7.712561988830567 v-0.9414627225661008 h-2.035259413719177 V25.7638970013611 l1.2854269981384276,-2.0174201197845 l4.070518827438354,13.3149727905777 h-1.821021580696106 v0.9414627225661008 h7.2840863227844235 v-0.9414627225661008 h-1.4996648311614988 l-5.355945825576782,-17.7532970541036 l1.6067837476730347,-2.8243881676983 c0.6427134990692144,-1.2104520718707004 1.1783080816268923,-2.1519147944368 1.6067837476730347,-2.8243881676983 s0.8569513320922854,-1.3449467465229998 1.3925459146499635,-2.0174201197845 c0.21423783302307134,-0.40348402395690036 0.5355945825576782,-0.6724733732615003 0.8569513320922854,-0.9414627225661008 s0.7498324155807501,-0.40348402395690036 1.2854269981384276,-0.5379786986092003 v-0.9414627225661008 h-6.320016074180604 v0.9414627225661008 c0.21423783302307134,0 0.4284756660461427,0 0.7498324155807501,0 c0.21423783302307134,0 0.4284756660461427,0.1344946746523001 0.6427134990692144,0.2689893493046002 c0.21423783302307134,0.2689893493046002 0.3213567495346073,0.40348402395690036 0.4284756660461427,0.6724733732615003 s0.10711891651153566,0.5379786986092003 0.10711891651153566,0.8069680479138006 c0,0.8069680479138006 -0.21423783302307134,1.4794414211753002 -0.4284756660461427,2.1519147944368 c-0.21423783302307134,0.6724733732615003 -0.5355945825576782,1.2104520718707004 -0.8569513320922854,1.7484307704799 l-4.713232326507569,8.2041751537903 v-13.852951489186902 h2.035259413719177 v-0.9414627225661008 L176.7817114046071,9.221052019128194 L176.7817114046071,9.221052019128194 zM95.15709702281693,9.221052019128194 v0.9414627225661008 h1.3925459146499635 l5.248826909065247,28.243881676983 h1.4996648311614988 l3.6420431613922117,-18.022286403408202 l3.427805328369141,18.022286403408202 h1.4996648311614988 l4.391875576972961,-22.1916213176295 c0.10711891651153566,-0.8069680479138006 0.3213567495346073,-1.6139360958276 0.4284756660461427,-2.2864094690891 c0.10711891651153566,-0.6724733732615003 0.3213567495346073,-1.3449467465229998 0.6427134990692144,-2.0174201197845 c0.21423783302307134,-0.40348402395690036 0.4284756660461427,-0.8069680479138006 0.6427134990692144,-1.0759573972184 c0.21423783302307134,-0.2689893493046002 0.5355945825576782,-0.5379786986092003 0.8569513320922854,-0.8069680479138006 v-0.9414627225661008 h-5.355945825576782 v0.9414627225661008 c0.21423783302307134,0 0.4284756660461427,0 0.6427134990692144,0.1344946746523001 c0.21423783302307134,0 0.4284756660461427,0.1344946746523001 0.6427134990692144,0.1344946746523001 c0.4284756660461427,0.2689893493046002 0.6427134990692144,0.6724733732615003 0.7498324155807501,1.0759573972184 c0.10711891651153566,0.5379786986092003 0.10711891651153566,0.8069680479138006 0.10711891651153566,1.2104520718707004 c0,0.5379786986092003 0,1.2104520718707004 -0.10711891651153566,2.0174201197845 s-0.3213567495346073,1.8829254451322002 -0.5355945825576782,3.3623668663075 l-2.3566161632537845,12.508004742663902 l-3.7491620779037476,-20.4431905471496 h1.9281404972076417 v-0.9414627225661008 h-7.069848489761352 v0.9414627225661008 h1.3925459146499635 l1.3925459146499635,7.8006911298334005 l-2.4637350797653195,12.6424994173162 l-3.7491620779037476,-20.4431905471496 h1.821021580696106 v-0.9414627225661008 L95.15709702281693,9.221052019128194 L95.15709702281693,9.221052019128194 zM80.48180546073655,9.221052019128194 v0.9414627225661008 h2.035259413719177 v26.89893493046 H80.48180546073655 v0.9414627225661008 h14.032578063011169 l0.21423783302307134,-9.5491219003133 h-0.8569513320922854 c-0.10711891651153566,0.8069680479138006 -0.21423783302307134,1.6139360958276 -0.4284756660461427,2.5553988183937 c-0.21423783302307134,0.9414627225661008 -0.5355945825576782,1.7484307704799 -0.8569513320922854,2.5553988183937 c-0.4284756660461427,0.9414627225661008 -0.964070248603821,1.7484307704799 -1.7139026641845707,2.4209041437414003 c-0.7498324155807501,0.6724733732615003 -1.4996648311614988,1.0759573972184 -2.4637350797653195,1.0759573972184 h-2.2494972467422487 v-14.3909301877961 h1.6067837476730347 c0.21423783302307134,0 0.6427134990692144,0 1.0711891651153564,0.2689893493046002 s0.8569513320922854,0.9414627225661008 1.1783080816268923,2.0174201197845 c0.10711891651153566,0.40348402395690036 0.21423783302307134,0.9414627225661008 0.21423783302307134,1.4794414211753002 c0.10711891651153566,0.5379786986092003 0.10711891651153566,1.0759573972184 0.10711891651153566,1.4794414211753002 h0.8569513320922854 V16.349269775700122 h-0.8569513320922854 c0,0.6724733732615003 -0.10711891651153566,1.3449467465229998 -0.21423783302307134,2.1519147944368 c-0.10711891651153566,0.6724733732615003 -0.3213567495346073,1.3449467465229998 -0.6427134990692144,1.8829254451322002 s-0.5355945825576782,0.8069680479138006 -0.8569513320922854,0.9414627225661008 s-0.5355945825576782,0.2689893493046002 -0.8569513320922854,0.2689893493046002 h-1.6067837476730347 v-11.566542020097799 h2.2494972467422487 c1.1783080816268923,0 2.142378330230713,0.40348402395690036 2.785091829299927,1.2104520718707004 s1.0711891651153564,1.4794414211753002 1.2854269981384276,2.1519147944368 c0.3213567495346073,0.8069680479138006 0.5355945825576782,1.6139360958276 0.6427134990692144,2.5553988183937 c0.10711891651153566,0.9414627225661008 0.21423783302307134,1.6139360958276 0.3213567495346073,2.2864094690891 h0.8569513320922854 l-0.21423783302307134,-9.2801325510087 L80.48180546073655,9.221052019128194 L80.48180546073655,9.221052019128194 zM62.70006531982164,9.221052019128194 v0.9414627225661008 h2.035259413719177 v26.89893493046 h-2.035259413719177 v0.9414627225661008 h7.712561988830567 v-0.9414627225661008 h-2.035259413719177 v-13.583962139882301 h2.142378330230713 c0.4284756660461427,0 0.8569513320922854,0.1344946746523001 1.1783080816268923,0.2689893493046002 s0.5355945825576782,0.40348402395690036 0.7498324155807501,0.6724733732615003 c0.3213567495346073,0.5379786986092003 0.5355945825576782,1.2104520718707004 0.6427134990692144,2.0174201197845 s0.10711891651153566,1.6139360958276 0.21423783302307134,2.1519147944368 l0.3213567495346073,4.4383242635259 c0.10711891651153566,1.4794414211753002 0.3213567495346073,2.689893493046 0.5355945825576782,3.2278721916552007 c0.21423783302307134,0.6724733732615003 0.4284756660461427,0.9414627225661008 0.5355945825576782,1.0759573972184 c0.10711891651153566,0.2689893493046002 0.4284756660461427,0.40348402395690036 0.7498324155807501,0.6724733732615003 c0.3213567495346073,0.1344946746523001 0.8569513320922854,0.2689893493046002 1.4996648311614988,0.2689893493046002 c0.7498324155807501,0 1.2854269981384276,-0.1344946746523001 1.7139026641845707,-0.40348402395690036 c0.4284756660461427,-0.2689893493046002 0.7498324155807501,-0.5379786986092003 0.964070248603821,-0.6724733732615003 l-0.3213567495346073,-0.9414627225661008 c-0.10711891651153566,0.1344946746523001 -0.21423783302307134,0.1344946746523001 -0.3213567495346073,0.2689893493046002 c-0.10711891651153566,0 -0.21423783302307134,0.1344946746523001 -0.3213567495346073,0.1344946746523001 c-0.4284756660461427,0 -0.7498324155807501,-0.40348402395690036 -0.964070248603821,-1.0759573972184 c-0.10711891651153566,-0.6724733732615003 -0.21423783302307134,-1.3449467465229998 -0.21423783302307134,-2.0174201197845 l-0.21423783302307134,-3.3623668663075 c0,-0.9414627225661008 -0.10711891651153566,-1.8829254451322002 -0.3213567495346073,-2.689893493046 s-0.4284756660461427,-1.4794414211753002 -0.7498324155807501,-2.0174201197845 c-0.4284756660461427,-0.6724733732615003 -0.964070248603821,-1.2104520718707004 -1.7139026641845707,-1.6139360958276 c-0.6427134990692144,-0.40348402395690036 -1.2854269981384276,-0.6724733732615003 -1.9281404972076417,-0.6724733732615003 v-0.40348402395690036 c0.6427134990692144,-0.1344946746523001 1.3925459146499635,-0.40348402395690036 2.035259413719177,-0.6724733732615003 c0.6427134990692144,-0.40348402395690036 1.2854269981384276,-0.8069680479138006 1.7139026641845707,-1.4794414211753002 c0.5355945825576782,-0.8069680479138006 0.964070248603821,-1.6139360958276 1.0711891651153564,-2.5553988183937 c0.21423783302307134,-0.9414627225661008 0.21423783302307134,-1.6139360958276 0.21423783302307134,-2.2864094690891 c0,-1.3449467465229998 -0.21423783302307134,-2.4209041437414003 -0.5355945825576782,-3.2278721916552007 s-0.6427134990692144,-1.3449467465229998 -0.964070248603821,-1.7484307704799 c-0.7498324155807501,-0.8069680479138006 -1.6067837476730347,-1.3449467465229998 -2.5708539962768553,-1.4794414211753002 c-0.964070248603821,-0.2689893493046002 -1.821021580696106,-0.2689893493046002 -2.4637350797653195,-0.2689893493046002 L62.70006531982164,9.221052019128194 L62.70006531982164,9.221052019128194 zM68.377367894933,22.536024809705935 L68.377367894933,22.536024809705935 v-12.3735100680116 h1.7139026641845707 c0.4284756660461427,0 0.8569513320922854,0.1344946746523001 1.1783080816268923,0.2689893493046002 c0.4284756660461427,0.1344946746523001 0.7498324155807501,0.40348402395690036 0.964070248603821,0.6724733732615003 c0.4284756660461427,0.5379786986092003 0.7498324155807501,1.2104520718707004 0.8569513320922854,1.8829254451322002 s0.10711891651153566,1.3449467465229998 0.10711891651153566,2.0174201197845 v2.5553988183937 c0,0.6724733732615003 0,1.3449467465229998 -0.21423783302307134,2.0174201197845 c-0.10711891651153566,0.6724733732615003 -0.3213567495346073,1.3449467465229998 -0.6427134990692144,1.8829254451322002 s-0.7498324155807501,0.8069680479138006 -1.1783080816268923,0.9414627225661008 c-0.4284756660461427,0.1344946746523001 -0.8569513320922854,0.1344946746523001 -1.2854269981384276,0.1344946746523001 H68.377367894933 L68.377367894933,22.536024809705935 zM45.45391976146441,9.221052019128194 v0.9414627225661008 h2.035259413719177 v26.89893493046 h-2.035259413719177 v0.9414627225661008 h8.141037654876708 c0.7498324155807501,0 1.3925459146499635,-0.1344946746523001 2.142378330230713,-0.5379786986092003 c0.6427134990692144,-0.2689893493046002 1.3925459146499635,-0.9414627225661008 2.142378330230713,-1.7484307704799 c1.2854269981384276,-1.6139360958276 2.142378330230713,-3.4968615409598 2.677972912788391,-5.7832710100489 c0.4284756660461427,-2.1519147944368 0.6427134990692144,-4.4383242635259 0.6427134990692144,-6.724733732615 c0,-1.4794414211753002 -0.10711891651153566,-2.9588828423506004 -0.3213567495346073,-4.7073136128305 s-0.7498324155807501,-3.3623668663075 -1.4996648311614988,-5.1107976367874 c-0.5355945825576782,-1.2104520718707004 -1.2854269981384276,-2.1519147944368 -2.142378330230713,-3.0933775170029 c-0.8569513320922854,-0.8069680479138006 -1.9281404972076417,-1.3449467465229998 -3.1064485788345335,-1.3449467465229998 h-8.676632237434386 L45.45391976146441,9.221052019128194 L45.45391976146441,9.221052019128194 zM51.13122233657578,10.162514741694281 L51.13122233657578,10.162514741694281 h1.4996648311614988 c0.5355945825576782,0 1.1783080816268923,0.1344946746523001 1.7139026641845707,0.40348402395690036 c0.6427134990692144,0.2689893493046002 1.1783080816268923,0.9414627225661008 1.6067837476730347,2.0174201197845 c0.4284756660461427,0.9414627225661008 0.6427134990692144,1.8829254451322002 0.7498324155807501,3.0933775170029 c0.10711891651153566,1.0759573972184 0.10711891651153566,2.4209041437414003 0.10711891651153566,3.7658508902644003 v7.1282177565719005 c0,1.6139360958276 0,3.2278721916552007 -0.21423783302307134,4.8418082874828015 c-0.10711891651153566,1.6139360958276 -0.5355945825576782,2.9588828423506004 -1.0711891651153564,4.034840239568999 c-0.5355945825576782,0.8069680479138006 -0.964070248603821,1.3449467465229998 -1.4996648311614988,1.4794414211753002 s-1.0711891651153564,0.2689893493046002 -1.7139026641845707,0.2689893493046002 h-1.2854269981384276 L51.13122233657578,10.162514741694281 L51.13122233657578,10.162514741694281 zM27.672179620549482,9.221052019128194 v0.9414627225661008 c0.3213567495346073,0 0.5355945825576782,0.1344946746523001 0.8569513320922854,0.2689893493046002 s0.5355945825576782,0.2689893493046002 0.6427134990692144,0.5379786986092003 c0.21423783302307134,0.2689893493046002 0.3213567495346073,0.6724733732615003 0.3213567495346073,1.2104520718707004 c0.10711891651153566,0.5379786986092003 0.10711891651153566,1.3449467465229998 0.10711891651153566,2.4209041437414003 v16.8118343315375 c0,0.5379786986092003 0,1.3449467465229998 -0.10711891651153566,2.2864094690891 s-0.21423783302307134,1.6139360958276 -0.4284756660461427,2.1519147944368 c-0.10711891651153566,0.2689893493046002 -0.3213567495346073,0.5379786986092003 -0.5355945825576782,0.8069680479138006 s-0.5355945825576782,0.40348402395690036 -1.0711891651153564,0.5379786986092003 v0.9414627225661008 h4.713232326507569 v-0.9414627225661008 c-0.3213567495346073,0 -0.6427134990692144,-0.1344946746523001 -0.8569513320922854,-0.2689893493046002 c-0.21423783302307134,-0.1344946746523001 -0.4284756660461427,-0.5379786986092003 -0.5355945825576782,-0.9414627225661008 c-0.10711891651153566,-0.40348402395690036 -0.3213567495346073,-0.8069680479138006 -0.3213567495346073,-1.6139360958276 c-0.10711891651153566,-0.6724733732615003 -0.10711891651153566,-1.6139360958276 -0.10711891651153566,-2.9588828423506004 V13.659376282654108 l10.497653818130495,24.7470201360232 h0.5355945825576782 v-22.5951053415864 c0,-0.5379786986092003 0,-1.3449467465229998 0.10711891651153566,-2.2864094690891 s0.21423783302307134,-1.6139360958276 0.4284756660461427,-2.1519147944368 c0.21423783302307134,-0.40348402395690036 0.3213567495346073,-0.8069680479138006 0.6427134990692144,-0.9414627225661008 c0.21423783302307134,-0.1344946746523001 0.5355945825576782,-0.2689893493046002 0.7498324155807501,-0.2689893493046002 v-0.9414627225661008 h-4.713232326507569 v0.9414627225661008 c0.4284756660461427,0.1344946746523001 0.7498324155807501,0.2689893493046002 0.964070248603821,0.5379786986092003 c0.21423783302307134,0.2689893493046002 0.4284756660461427,0.5379786986092003 0.5355945825576782,0.8069680479138006 c0.21423783302307134,0.5379786986092003 0.3213567495346073,1.2104520718707004 0.4284756660461427,2.1519147944368 c0.10711891651153566,0.9414627225661008 0.10711891651153566,1.7484307704799 0.10711891651153566,2.2864094690891 v12.104520718707 l-8.033918738365173,-18.9637491259743 L27.672179620549482,9.221052019128194 L27.672179620549482,9.221052019128194 zM20.280974381253515,28.72277984371169 L20.280974381253515,28.72277984371169 h-4.713232326507569 l2.3566161632537845,-11.970026044054704 L20.280974381253515,28.72277984371169 z" id="svg_1"/></g></svg>